<svg id="Calque_1" data-name="Calque 1" xmlns="http://www.w3.org/2000/svg" viewBox="0 0 801 801"><defs><style>.cls-1{fill:#fff;}.cls-2{fill:#121212;}</style></defs><rect class="cls-1" y="0.5" width="801" height="801"/><circle class="cls-2" cx="400.5" cy="550.5" r="40"/><path class="cls-2" d="M575.5.5a75,75,0,0,1,75,75v475c0,102.52-61.71,190.62-150,229.2a249,249,0,0,1-99.33,20.8c-137.95.36-250.67-112-250.67-250s111.93-250,250-250a251.07,251.07,0,0,1,40,3.19V458.83a99.65,99.65,0,0,0-42.07-8.31c-54.54,1.1-98.44,46.39-97.93,100.94a100,100,0,0,0,200-1V75.5a75,75,0,0,1,75-75Z"/></svg>